<svg width="28" height="28" viewBox="0 0 28 28" fill="none" xmlns="http://www.w3.org/2000/svg">
    <path fill-rule="evenodd" clip-rule="evenodd" d="M3.11865 8.23233C3.90915 8.50362 4.53886 9.16521 4.80236 10.0039L4.83069 10.0889C5.13244 10.9785 5.0099 11.9362 4.50415 12.6545C4.41207 12.7848 4.43261 12.9406 4.52965 13.0143L5.99732 14.1292C6.04903 14.1682 6.09932 14.1682 6.13049 14.1646C6.1659 14.159 6.21761 14.1398 6.2594 14.0803L6.42303 13.848C6.91107 13.156 7.69732 12.7288 8.52749 12.7047C9.45965 12.6856 10.2969 13.1127 10.8182 13.8657L10.9018 13.9868C10.9436 14.0463 10.9946 14.0662 11.0307 14.0718C11.0619 14.0782 11.1129 14.0761 11.1639 14.0364L12.6238 12.935C12.7258 12.8585 12.7484 12.6948 12.6727 12.585L12.4885 12.3194C12.0139 11.6337 11.8729 10.7441 12.1117 9.94012C12.3709 9.06462 13.0304 8.37187 13.8768 8.08854L14.0192 8.04037C14.1332 8.00283 14.1949 7.86116 14.1545 7.73083L13.597 5.94512C13.5708 5.86154 13.517 5.824 13.4872 5.80841C13.4447 5.78646 13.3987 5.78291 13.3548 5.79779L13.1139 5.87783C12.2902 6.15196 11.3814 6.00321 10.6837 5.47833L10.6072 5.42096C9.94415 4.92229 9.54961 4.11833 9.55244 3.27116L9.55386 3.07283C9.55386 2.97862 9.50924 2.91983 9.48232 2.89291C9.45682 2.86671 9.41361 2.83554 9.3527 2.83554L7.54857 2.83341C7.43807 2.83341 7.34811 2.93896 7.3474 3.06929L7.34669 3.24071C7.34315 4.10133 6.94011 4.92016 6.26861 5.43229L6.17724 5.50171C5.43844 6.06341 4.47511 6.22208 3.60244 5.92458C3.56915 5.91325 3.53799 5.91537 3.50824 5.93096C3.48557 5.94229 3.44449 5.97133 3.42465 6.03579L2.84594 7.87462C2.80415 8.0085 2.87286 8.14804 3.00249 8.19266L3.11865 8.23233ZM6.10144 15.5834C5.75719 15.5834 5.42286 15.4715 5.14094 15.2569L3.67327 14.1427C2.97202 13.6114 2.8169 12.5893 3.3269 11.8647C3.59181 11.4892 3.64636 11.0069 3.49052 10.5493L3.45156 10.4303C3.32194 10.018 3.02586 9.69787 2.65965 9.5725H2.65894L2.54348 9.53212C1.68073 9.23675 1.22031 8.32229 1.49444 7.44962L2.07244 5.6115C2.20348 5.19571 2.48611 4.85996 2.86861 4.66658C3.24261 4.47816 3.66548 4.44912 4.06073 4.58441C4.48502 4.72891 4.95606 4.65029 5.31944 4.37404L5.41081 4.30462C5.73381 4.05812 5.92861 3.65791 5.93002 3.23504L5.93073 3.06433C5.93427 2.15483 6.66031 1.41675 7.54786 1.41675H7.55069L9.35481 1.41887C9.78123 1.41958 10.1836 1.58816 10.4867 1.89346C10.8005 2.20866 10.9719 2.63012 10.9705 3.07991L10.9691 3.27754C10.9677 3.67846 11.1511 4.05742 11.4607 4.28975L11.5365 4.34712C11.8616 4.5915 12.2852 4.66162 12.6656 4.53412L12.9057 4.45408C13.3144 4.31808 13.7493 4.35137 14.1325 4.54758C14.5256 4.74875 14.8161 5.09512 14.9492 5.52366L15.5067 7.30937C15.7759 8.17212 15.3098 9.10287 14.469 9.38408L14.3266 9.43154C13.9186 9.56896 13.5977 9.90896 13.4695 10.3425C13.3519 10.7398 13.4199 11.1769 13.653 11.5126L13.8371 11.7782C14.3429 12.5092 14.1814 13.5349 13.4773 14.0655L12.0174 15.1676C11.6668 15.4325 11.2369 15.5395 10.8055 15.4708C10.3706 15.4007 9.9909 15.1598 9.73661 14.7929L9.65302 14.6711C9.40511 14.3141 9.00844 14.0973 8.59265 14.1207C8.17615 14.132 7.81631 14.3297 7.58115 14.664L7.41752 14.8963C7.16111 15.2597 6.78073 15.497 6.34794 15.565C6.26506 15.5777 6.1829 15.5834 6.10144 15.5834V15.5834ZM8.5 7.43751C7.9142 7.43751 7.4375 7.91422 7.4375 8.50001C7.4375 9.0858 7.9142 9.56251 8.5 9.56251C9.08579 9.56251 9.5625 9.0858 9.5625 8.50001C9.5625 7.91422 9.08579 7.43751 8.5 7.43751M8.5 10.9792C7.13292 10.9792 6.02083 9.86709 6.02083 8.50001C6.02083 7.13292 7.13292 6.02084 8.5 6.02084C9.86708 6.02084 10.9792 7.13292 10.9792 8.50001C10.9792 9.86709 9.86708 10.9792 8.5 10.9792" fill="white"></path>
    <path fill-rule="evenodd" clip-rule="evenodd" d="M18 11C18 9.897 17.103 9 16 9C14.897 9 14 9.897 14 11C14 12.103 14.897 13 16 13C17.103 13 18 12.103 18 11ZM20 11C20 13.206 18.206 15 16 15C13.794 15 12 13.206 12 11C12 8.794 13.794 7 16 7C18.206 7 20 8.794 20 11ZM9 24C9 20.14 12.141 17 16 17C19.859 17 23 20.14 23 24C23 24.552 22.553 25 22 25C21.447 25 21 24.552 21 24C21 21.243 18.757 19 16 19C13.243 19 11 21.243 11 24C11 24.552 10.553 25 10 25C9.447 25 9 24.552 9 24Z" fill="white"></path>
</svg>