<svg width="24" height="24" viewBox="0 0 24 24" fill="none" xmlns="http://www.w3.org/2000/svg">
    <path fill-rule="evenodd" clip-rule="evenodd" d="M20.0164 17.7049C20.5596 17.7049 21 17.2645 21 16.7213C21 16.1781 20.5596 15.7377 20.0164 15.7377H3.98361C3.44038 15.7377 3 16.1781 3 16.7213C3 17.2645 3.44038 17.7049 3.98361 17.7049H20.0164ZM20.0164 12.7869C20.5596 12.7869 21 12.3465 21 11.8033C21 11.2601 20.5596 10.8197 20.0164 10.8197H9.98361C9.44038 10.8197 9 11.2601 9 11.8033C9 12.3465 9.44038 12.7869 9.98361 12.7869H20.0164ZM15 6.88525C15 7.42848 15.4404 7.86886 15.9836 7.86886H20.0164C20.5596 7.86886 21 7.42848 21 6.88525C21 6.34202 20.5596 5.90164 20.0164 5.90164H15.9836C15.4404 5.90164 15 6.34202 15 6.88525Z" fill="white"/>
</svg>
