<svg width="53" height="52" viewBox="0 0 53 52" fill="none" xmlns="http://www.w3.org/2000/svg">
<path d="M52.5928 36.2379C52.1028 35.1962 51.2134 34.3907 50.121 33.998C49.0285 33.6054 47.823 33.6583 46.7704 34.1453L35.4067 39.3717C36.1604 38.0301 36.139 36.3944 35.3515 35.0723C34.5635 33.7497 33.1263 32.9378 31.5731 32.9374H27.188V30.8579C28.1832 31.2907 29.2576 31.5171 30.3454 31.5234C34.4299 31.5255 37.8365 28.4387 38.1868 24.4181C38.2147 24.1088 38.0729 23.808 37.8151 23.6303C35.5052 22.0395 32.514 21.7801 29.9595 22.9495C28.8816 23.4505 27.934 24.1875 27.188 25.1043V22.4956C33.2959 22.0297 37.9397 16.8787 37.7038 10.831C37.4682 4.783 32.4369 0 26.3109 0C20.185 0 15.1536 4.783 14.9181 10.831C14.6821 16.8787 19.3259 22.0297 25.4339 22.4956V25.1043C24.6896 24.1828 23.7419 23.442 22.6632 22.9381C20.1083 21.7695 17.1171 22.0289 14.8068 23.6193C14.549 23.797 14.4072 24.0974 14.435 24.4067C14.6436 26.9079 16.0658 29.1545 18.2502 30.4348C20.4351 31.7151 23.112 31.8708 25.4339 30.8528V32.9374H18.4177C16.0465 32.9357 13.8873 34.2857 12.8741 36.4033H10.5244V33.8039C10.5244 33.3253 10.1317 32.9374 9.64734 32.9374H0.877031C0.392694 32.9374 0 33.3253 0 33.8039V51.1335C0 51.612 0.392694 52 0.877031 52H9.64734C10.1317 52 10.5244 51.612 10.5244 51.1335V49.4006H33.427C34.0672 49.3997 34.6993 49.2614 35.2795 48.9952L50.4768 41.9965C52.6626 40.976 53.6068 38.4058 52.5928 36.2379ZM30.7004 24.5124C32.5204 23.6811 34.6359 23.7763 36.3715 24.768C36.0311 26.7226 34.7425 28.3883 32.9234 29.2265C31.1038 30.0642 28.9844 29.9681 27.2501 28.9688C27.5969 27.0171 28.8846 25.3544 30.7004 24.5124ZM19.6981 29.2243C17.8832 28.382 16.5972 26.7192 16.2503 24.768C17.9847 23.7691 20.1041 23.6726 21.9236 24.5107C23.7428 25.3484 25.0314 27.0141 25.3718 28.9688C23.6353 29.9614 21.5185 30.057 19.6981 29.2243ZM16.6636 11.2753C16.6636 6.01123 20.9828 1.74397 26.3109 1.74397C31.6391 1.74397 35.9583 6.01123 35.9583 11.2753C35.9583 16.5393 31.6391 20.8066 26.3109 20.8066C20.9854 20.8003 16.67 16.5368 16.6636 11.2753ZM8.77031 50.267H1.75406V34.6703H8.77031V50.267ZM49.7347 40.4273L34.5382 47.4252C34.1901 47.5842 33.8111 47.6667 33.427 47.6676H10.5244V38.1363H13.4625C13.8355 38.1358 14.1678 37.9023 14.2903 37.5541C14.9061 35.8241 16.5612 34.6674 18.4177 34.6703H31.5731C33.0261 34.6703 34.2042 35.8342 34.2042 37.2698C34.2042 38.7053 33.0261 39.8692 31.5731 39.8692H23.6798V41.6022H33.7439C34.3828 41.6014 35.014 41.463 35.5934 41.1969L47.513 35.7145C48.8247 35.1082 50.3852 35.6667 50.9993 36.9622C51.1607 37.3087 51.2447 37.6857 51.2451 38.0669C51.2442 39.0755 50.6567 39.994 49.7347 40.4273Z" fill="#C2D1D9"/>
<path d="M35 10.5C35 5.80549 31.1945 2 26.5 2C21.8055 2 18 5.80549 18 10.5C18 15.1945 21.8055 19 26.5 19C31.1924 18.995 34.995 15.1924 35 10.5ZM19.7 10.5C19.7 6.74431 22.7443 3.7 26.5 3.7C30.2557 3.7 33.3 6.74431 33.3 10.5C33.3 14.2557 30.2557 17.3 26.5 17.3C22.7464 17.2958 19.7042 14.2536 19.7 10.5Z" fill="#C2D1D9"/>
<path d="M27.375 16V15.1667C28.8246 15.1667 30 14.0473 30 12.6667C30 11.2861 28.8246 10.1667 27.375 10.1667H25.625C25.1418 10.1667 24.75 9.79354 24.75 9.33333C24.75 8.87313 25.1418 8.5 25.625 8.5H27.375C27.8582 8.5 28.25 8.87313 28.25 9.33333H30C30 7.95272 28.8246 6.83333 27.375 6.83333V6H25.625V6.83333C24.1754 6.83333 23 7.95272 23 9.33333C23 10.7139 24.1754 11.8333 25.625 11.8333H27.375C27.8582 11.8333 28.25 12.2065 28.25 12.6667C28.25 13.1269 27.8582 13.5 27.375 13.5H25.625C25.1418 13.5 24.75 13.1269 24.75 12.6667H23C23 14.0473 24.1754 15.1667 25.625 15.1667V16H27.375Z" fill="#C2D1D9"/>
</svg>
