<svg width="51" height="51" viewBox="0 0 51 51" fill="none" xmlns="http://www.w3.org/2000/svg">
<g clip-path="url(#clip0)">
<path d="M49.5133 27.9358C48.7129 27.5125 47.7526 27.5035 46.9448 27.9125L43.8017 29.5027C46.1409 26.6203 47.5452 22.9495 47.5452 18.9562C47.5452 9.71197 40.0247 2.19147 30.7809 2.19147C21.5366 2.19147 14.0161 9.71197 14.0161 18.9562C14.0161 21.4231 14.5515 23.8285 15.5784 26.0308C15.4247 25.9779 15.2725 25.9281 15.1231 25.8853C14.4099 25.6798 13.0659 25.5892 9.64538 27.1603C8.98624 27.4631 8.36719 27.7743 7.84657 28.0479V26.1674C7.84657 25.6145 7.39833 25.1662 6.84542 25.1662H1.00115C0.448242 25.1662 0 25.6145 0 26.1674V47.8484C0 48.4013 0.448242 48.8495 1.00115 48.8495H6.84542C7.39833 48.8495 7.84657 48.4013 7.84657 47.8484V46.0853H19.9958C20.5483 46.0853 20.997 45.6371 20.997 45.0846C20.997 44.5317 20.5483 44.0834 19.9958 44.0834H7.84657V30.3206C10.4372 28.8529 13.6006 27.5304 14.5698 27.8094C15.197 27.9895 15.9476 28.3214 16.7422 28.6724C18.4476 29.4261 20.5701 30.3642 22.944 30.465C26.1669 30.6023 29.1785 31.6688 29.6034 32.2C29.8505 32.6447 29.9272 33.4988 29.861 33.9602H18.1165C16.618 33.9602 15.7986 34.5898 15.3749 35.1178C14.3247 36.4271 14.6932 38.261 14.7387 38.4656C14.8585 39.0053 15.3939 39.3489 15.9336 39.2283C16.4737 39.1084 16.8145 38.5765 16.6947 38.0368C16.6352 37.7551 16.5531 36.8431 16.9398 36.3664C17.0211 36.2664 17.2678 35.9622 18.1165 35.9622H30.356C30.3575 35.9622 30.3591 35.9625 30.3606 35.9625C30.3618 35.9625 30.363 35.9622 30.3641 35.9622H31.3929C34.0606 35.9622 36.729 35.3256 39.1091 34.1209L47.8487 29.6984C48.0779 29.5825 48.3498 29.5852 48.5767 29.7051C48.8366 29.8428 48.9981 30.1109 48.9981 30.405V31.8023C48.9981 32.0552 48.8755 32.2949 48.6709 32.4435L37.8531 40.2815C36.4959 41.2648 34.9034 41.9212 33.2458 42.1803L27.7751 43.0449C27.2292 43.1309 26.856 43.6437 26.9424 44.19C27.0206 44.683 27.4459 45.0348 27.9299 45.0348C27.9821 45.0348 28.0346 45.0309 28.0875 45.0223L33.5567 44.1581C35.5236 43.8507 37.4158 43.071 39.0278 41.9029L49.8455 34.0653C50.5685 33.5412 51 32.6953 51 31.8027V30.4054C51 29.3677 50.4304 28.4214 49.5133 27.9358ZM5.84427 46.8472H2.0023V27.1681H5.84427V46.8472ZM28.0315 29.3062C26.4798 28.8409 24.6564 28.5339 23.0292 28.465C21.439 28.3973 19.9421 27.8642 18.5736 27.286C18.5519 27.2386 18.5273 27.1923 18.4978 27.1475C16.8756 24.7207 16.0184 21.8881 16.0184 18.9562C16.0184 10.8162 22.6405 4.19377 30.7809 4.19377C38.9208 4.19377 45.5433 10.8158 45.5433 18.9562C45.5433 26.723 39.5142 33.1077 31.8906 33.677V26.8771C31.8921 26.8284 31.8937 26.7386 31.8906 26.6137V24.0935C34.6952 24.0814 37.0228 23.2635 38.82 21.6542C42.1204 18.6986 42.3651 14.1711 42.3741 13.9796C42.3877 13.6858 42.2713 13.4014 42.0562 13.201C41.8414 13.0006 41.5484 12.9049 41.2573 12.9396C35.2041 13.6516 32.4326 16.3407 31.1735 18.4714C30.3727 19.8266 30.0688 21.1289 29.9556 22.0095C29.291 21.3044 28.4809 20.7274 27.5634 20.3313L23.3654 18.5204C23.3035 18.4936 23.2393 18.4733 23.1732 18.4597C23.0331 18.4301 22.9674 18.4138 22.9222 18.4029C22.7604 18.362 22.6977 18.3535 22.337 18.3111C22.0444 18.2764 21.753 18.3725 21.5378 18.5725C21.323 18.7729 21.2067 19.0577 21.2203 19.3511C21.2277 19.5122 21.4339 23.3277 24.2175 25.8203C25.6988 27.1471 27.6035 27.8362 29.8883 27.8794V30.0175C29.384 29.7642 28.7653 29.5265 28.0315 29.3062ZM31.9653 22.0916C32.0684 21.4277 32.3143 20.4764 32.8972 19.49C34.2345 17.2266 36.6866 15.7601 40.1951 15.1205C39.9169 16.4582 39.2181 18.6099 37.4846 20.1628C36.0827 21.418 34.2298 22.0647 31.9653 22.0916ZM29.7964 25.8755C28.0677 25.8183 26.6478 25.3036 25.5654 24.3398C24.3654 23.2709 23.7751 21.8281 23.4876 20.753L26.7704 22.1694C28.3361 22.8448 29.47 24.2448 29.7964 25.8755Z" fill="#C2D1D9"/>
<path d="M24.5093 43.9488L24.4816 43.9309C24.0174 43.6301 23.3976 43.7628 23.0972 44.2266C22.7964 44.6908 22.9287 45.3106 23.3929 45.611L23.4206 45.6293C23.589 45.7382 23.7774 45.79 23.9641 45.79C24.2921 45.79 24.6135 45.6293 24.805 45.3332C25.1058 44.8694 24.9735 44.2495 24.5093 43.9488Z" fill="#C2D1D9"/>
<path d="M21.5441 14.243C21.562 14.1878 23.3989 8.73651 29.1564 8.20228C29.7066 8.15131 30.1117 7.66377 30.0607 7.11319C30.0093 6.56262 29.5245 6.15834 28.9712 6.20892C26.0479 6.48013 23.5063 7.84703 21.6215 10.1629C20.2118 11.8948 19.6628 13.5543 19.6402 13.624C19.469 14.1497 19.757 14.7146 20.2826 14.8854C20.3854 14.9189 20.4896 14.9349 20.5924 14.9349C21.0145 14.9349 21.4067 14.666 21.5441 14.243Z" fill="#C2D1D9"/>
<path d="M32.3831 8.28977L32.4107 8.30766C32.5792 8.417 32.7675 8.46875 32.9543 8.46875C33.2823 8.46875 33.6037 8.30766 33.7951 8.01195C34.0959 7.54814 33.9636 6.92831 33.4994 6.62754L33.4718 6.60964C33.0076 6.30886 32.3877 6.44155 32.0874 6.90535C31.7866 7.36955 31.9193 7.98938 32.3831 8.28977Z" fill="#C2D1D9"/>
</g>
<defs>
<clipPath id="clip0">
<rect width="51" height="51" fill="white"/>
</clipPath>
</defs>
</svg>
