<svg width="53" height="52" viewBox="0 0 53 52" fill="none" xmlns="http://www.w3.org/2000/svg">
<path d="M25 22H27V33H25V22Z" fill="#C2D1D9"/>
<path d="M27 7.5C27 8.32837 26.3284 9 25.5 9C24.6716 9 24 8.32837 24 7.5C24 6.67163 24.6716 6 25.5 6C26.3284 6 27 6.67163 27 7.5Z" fill="#C2D1D9"/>
<path d="M19.9139 14.9971C20.1226 13.1159 21.1933 11.456 22.7882 10.5408C21.3746 9.00029 21.4117 6.56557 22.871 5.07171C24.3309 3.57786 26.6728 3.57786 28.1326 5.07171C29.592 6.56557 29.6291 9.00029 28.2155 10.5408C29.8181 11.4479 30.8907 13.114 31.0861 15C33.7787 11.8752 33.6107 7.09573 30.7053 4.18368C27.8003 1.27211 23.1997 1.27211 20.2947 4.18368C17.3893 7.09573 17.2213 11.8752 19.9139 15V14.9971Z" fill="#C2D1D9"/>
<path d="M26 11C23.791 11 22 12.791 22 14.9998V15.9168C24.4712 17.3611 27.5288 17.3611 30 15.9168V14.9998C30.0044 13.9379 29.584 12.9179 28.833 12.167C28.082 11.416 27.062 10.9961 26 11Z" fill="#C2D1D9"/>
<path d="M26 20C31.5229 20 36 15.5229 36 10C36 4.4771 31.5229 0 26 0C20.4771 0 16 4.4771 16 10C16.0067 15.5202 20.4798 19.9938 26 20ZM26 0.909091C31.0209 0.909091 35.0909 4.97958 35.0909 10C35.0909 15.0209 31.0209 19.0909 26 19.0909C20.9791 19.0909 16.9091 15.0209 16.9091 10C16.9144 4.9818 20.9814 0.914862 26 0.909091Z" fill="#C2D1D9"/>
<path d="M30.7795 23.6752C28.7902 24.6847 27.3803 26.676 27 29.0128C28.901 30.2099 31.2246 30.3249 33.2195 29.3215C35.2145 28.3175 36.6267 26.3222 37 23.9813C35.0966 22.7913 32.7754 22.6768 30.7795 23.6752Z" fill="#C2D1D9"/>
<path d="M18.7828 29.3277C20.7782 30.3236 23.099 30.2076 25 29.0161C24.6272 26.6762 23.2145 24.6818 21.22 23.6782C19.2251 22.6752 16.901 22.7902 15 23.9867C15.3794 26.3256 16.7907 28.3185 18.7828 29.3277Z" fill="#C2D1D9"/>
<path d="M12.1748 38.7333H9V49H33.746C34.1616 48.9995 34.572 48.9102 34.9487 48.738L51.367 41.2011C52.3638 40.7349 52.9995 39.7455 53 38.6586C52.9991 38.248 52.9084 37.8419 52.7335 37.4687C52.0709 36.0732 50.3842 35.4712 48.9674 36.1247L36.0888 42.0301C35.4623 42.3167 34.7802 42.4658 34.0894 42.4667H23.2149V40.6H31.7438C33.3139 40.6 34.5868 39.3467 34.5868 37.8C34.5868 36.2537 33.3139 35 31.7438 35H17.5289C15.523 34.9968 13.7341 36.2428 13.0692 38.1063C12.9369 38.4813 12.5778 38.7333 12.1748 38.7333Z" fill="#C2D1D9"/>
<path d="M0 35H7V52H0V35Z" fill="#C2D1D9"/>
</svg>
