<svg width="51" height="51" viewBox="0 0 51 51" fill="none" xmlns="http://www.w3.org/2000/svg">
<g clip-path="url(#clip0)">
<path d="M46.8119 33.6986L43.1587 34.9164C42.7786 33.7768 41.889 32.8796 40.7528 32.4896C40.4233 30.3192 38.4961 28.7561 36.3044 28.8816C34.8861 26.6045 32.3233 25.3001 29.6476 25.4932C29.3576 24.3598 28.5067 23.4544 27.3934 23.0947C28.1882 20.5091 29.6072 18.1589 31.5249 16.2512C31.6274 16.3686 31.7235 16.492 31.8319 16.6035C33.5432 18.35 35.8814 19.3403 38.3265 19.3544C38.4987 19.3544 38.6718 19.3494 38.8441 19.3386C41.0475 19.2386 43.0937 18.1683 44.4325 16.4155C48.133 11.5479 50.8557 1.76581 50.9694 1.35163C51.0349 1.11456 50.9944 0.860755 50.8585 0.655758C50.7225 0.450762 50.5045 0.314795 50.2605 0.28292C49.7596 0.21648 37.9189 -1.26979 31.9996 3.72941C31.5814 4.08233 31.2022 4.47877 30.8682 4.91218C28.5375 4.26989 26.1067 4.07296 23.703 4.33165C23.4521 4.36054 23.2271 4.49959 23.0888 4.71096C22.9505 4.92234 22.9134 5.18421 22.9875 5.42576C23.0444 5.61004 24.3949 9.96258 26.253 12.1423C27.0765 13.0764 28.2698 13.5999 29.5148 13.5734C29.6367 13.5734 29.7603 13.5641 29.8837 13.5548C30.0595 13.9951 30.2676 14.4217 30.5064 14.8313C28.1941 17.0754 26.5217 19.8953 25.6616 23.0008C24.8572 23.1712 24.1409 23.6251 23.6432 24.2798C21.3043 23.2466 18.5666 23.8293 16.8512 25.7253C16.3508 25.5594 15.8273 25.4747 15.3001 25.4742C12.8141 25.4784 10.6928 27.2732 10.2769 29.7242H8.70249C7.99357 28.6626 6.80154 28.0249 5.52504 28.0242H3.82501C1.71348 28.0265 0.00229102 29.7377 0 31.8492V47.1492C0.00229102 49.2607 1.71348 50.9719 3.82501 50.9742H5.52504C6.39045 50.9705 7.22837 50.6705 7.89954 50.1243H30.0049C31.2521 50.1244 32.4753 49.7813 33.5406 49.1327L49.4732 39.4345C50.8546 38.5918 51.3836 36.8466 50.7026 35.3789C50.0215 33.911 48.3474 33.1879 46.8119 33.6986ZM30.9002 9.65618C30.9517 7.87417 31.7483 6.19545 33.0961 5.02852C36.3504 2.28099 41.8796 1.73931 45.7336 1.73931C47.1124 1.73931 48.277 1.80864 49.0461 1.8709C48.2603 4.46991 45.9291 11.638 43.0795 15.3871C42.0375 16.743 40.4491 17.5686 38.7407 17.6421C36.6122 17.7545 34.5386 16.9442 33.0505 15.4183C32.9423 15.3071 32.8453 15.1853 32.7445 15.067C34.5254 13.4519 36.5004 12.0647 38.6241 10.9375C39.0458 10.7311 39.2203 10.2219 39.0139 9.80022C38.8075 9.37857 38.2983 9.20405 37.8766 9.41044C35.6748 10.554 33.6246 11.9687 31.7742 13.6215C31.1421 12.3986 30.8408 11.0316 30.9002 9.65618ZM29.2022 9.57271C29.1695 10.343 29.2318 11.1144 29.388 11.8694C28.6862 11.8641 28.0189 11.5638 27.5495 11.0419C26.429 9.48674 25.5553 7.76788 24.9593 5.94612C26.6423 5.84831 28.3304 6.00619 29.9661 6.41429C29.5111 7.40829 29.2517 8.48059 29.2022 9.57271ZM7.65002 47.1492C7.64862 48.3222 6.69805 49.2728 5.52504 49.2742H3.82501C2.65201 49.2728 1.70133 48.3222 1.70004 47.1492V31.8492C1.70143 30.6762 2.65201 29.7256 3.82501 29.7242H5.52504C6.69805 29.7256 7.64872 30.6762 7.65002 31.8492V47.1492ZM15.3 27.1741C15.8029 27.1772 16.2986 27.2933 16.7505 27.5136C17.1213 27.6895 17.5647 27.5758 17.8051 27.2434C19.1131 25.4153 21.6222 24.9289 23.5185 26.1357C23.734 26.2724 23.9994 26.3049 24.2416 26.2244C24.4837 26.144 24.6769 25.959 24.7677 25.7206C25.007 25.0859 25.6044 24.6574 26.2824 24.6343C26.3051 24.6361 26.3281 24.641 26.3507 24.641C26.372 24.641 26.3912 24.6319 26.4123 24.6303C27.3096 24.6575 28.0291 25.3809 28.0516 26.2783C28.0483 26.3019 28.0395 26.3825 28.0379 26.4061C28.023 26.6696 28.1312 26.9251 28.331 27.0976C28.5307 27.2701 28.7992 27.3401 29.0577 27.2869C29.4254 27.2118 29.7997 27.174 30.175 27.174C32.2505 27.1711 34.151 28.3359 35.0908 30.1864C35.2656 30.5284 35.6482 30.7104 36.0238 30.6301C36.7687 30.4775 37.5429 30.6635 38.137 31.1381C38.7312 31.6126 39.0838 32.3265 39.0996 33.0867C39.0976 33.1149 39.096 33.1436 39.096 33.1664C39.0961 33.5895 39.4072 33.948 39.826 34.0077C40.6261 34.1259 41.2902 34.6868 41.5406 35.4558L31.0782 38.9435C30.8181 39.0301 30.5459 39.0743 30.2717 39.0742H29.7834C30.1872 37.9671 30.0705 36.737 29.4657 35.7256L29.3902 35.6007C28.4653 34.068 26.8075 33.1291 25.0173 33.1242H20.5715C19.0031 33.1222 17.4819 32.5886 16.2559 31.6105C15.0264 30.6325 13.5534 30.0083 11.9955 29.8054C12.3527 28.2675 13.7213 27.1778 15.3 27.1741ZM49.2732 36.999C49.1961 37.4093 48.9473 37.7671 48.5896 37.9823L32.6566 47.6809C31.8576 48.1672 30.9402 48.4244 30.0049 48.4243H9.11507C9.26628 48.016 9.34577 47.5847 9.35005 47.1493V31.8493C9.34388 31.707 9.32953 31.565 9.30712 31.4243H10.8787C12.447 31.4263 13.9683 31.9599 15.1942 32.9379C16.7217 34.1568 18.6173 34.8218 20.5715 34.8243H25.0173C26.2111 34.8278 27.3164 35.4541 27.933 36.4762L28.0085 36.6011C28.4726 37.3745 28.4228 38.3519 27.8826 39.0743H22.7163C21.038 39.0726 19.3971 39.5695 18.0018 40.502L17.3789 40.917C17.1247 41.0848 16.9795 41.3758 16.9987 41.6797C17.0177 41.9837 17.198 42.2542 17.4712 42.3888C17.7445 42.5235 18.0688 42.5015 18.3215 42.3314L18.9444 41.9163C20.0609 41.1704 21.3736 40.7728 22.7164 40.7742H30.2717C30.7286 40.7742 31.1823 40.7006 31.6157 40.5563L42.4606 36.9412C42.4744 36.9419 42.4861 36.9492 42.5 36.9492C42.6907 36.9458 42.8743 36.8771 43.0204 36.7546L47.3498 35.3114C47.9557 35.1091 48.623 35.3189 49.0041 35.8315C49.2564 36.1644 49.3543 36.5893 49.2732 36.999Z" fill="#C2D1D9"/>
<path d="M19.4232 30.5572C19.8832 30.6506 20.3319 30.3535 20.4256 29.8936C20.5483 29.3008 21.07 28.8753 21.6753 28.8741C21.951 28.8732 22.2196 28.9626 22.4398 29.1285C22.8151 29.4085 23.346 29.3321 23.6272 28.9578C23.9084 28.5836 23.834 28.0524 23.4608 27.7698C22.9467 27.3815 22.3196 27.1723 21.6753 27.1742C20.2623 27.1774 19.0453 28.1711 18.7596 29.5549C18.6662 30.0149 18.9632 30.4635 19.4232 30.5572Z" fill="#C2D1D9"/>
<path d="M28.5204 30.8379C28.7926 30.9733 29.1164 30.953 29.3695 30.7845C29.8754 30.4525 30.5448 30.5207 30.9736 30.9477C31.1693 31.1421 31.296 31.3953 31.3343 31.6686C31.394 32.087 31.7521 32.398 32.1748 32.3986C32.2153 32.3985 32.2558 32.3957 32.296 32.3903C32.7608 32.3239 33.0838 31.8935 33.0178 31.4287C32.8734 30.4191 32.2219 29.5537 31.2916 29.1356C30.3612 28.7175 29.2815 28.8051 28.4308 29.3676C28.1771 29.535 28.0321 29.8253 28.0507 30.1287C28.069 30.4321 28.2482 30.7026 28.5204 30.8379Z" fill="#C2D1D9"/>
</g>
<defs>
<clipPath id="clip0">
<rect width="51" height="51" fill="white"/>
</clipPath>
</defs>
</svg>
