<svg width="52" height="53" viewBox="0 0 52 53" fill="none" xmlns="http://www.w3.org/2000/svg">
<path d="M41.3884 41.5421C37.978 36.7886 32.6384 33.866 26.8667 33.593V31.4468C27.8501 31.8889 28.9119 32.12 29.9868 32.1261C34.0226 32.1269 37.3881 28.9809 37.7355 24.8826C37.7631 24.5673 37.623 24.261 37.3682 24.0795C35.0852 22.4581 32.1293 22.1938 29.6046 23.3855C28.5399 23.8962 27.6034 24.6475 26.8667 25.5822V22.927C27.2602 22.8981 27.6517 22.8485 28.0401 22.7786C33.7738 21.7077 37.7588 16.3559 37.229 10.4396C36.6992 4.52277 31.8288 -0.00474075 26 3.72542e-06C25.6534 3.72542e-06 25.3106 0.0159624 24.9721 0.0478797C19.1551 0.607727 14.7232 5.60753 14.7655 11.5627C14.8074 17.5179 19.3091 22.4521 25.1333 22.927V25.5822C24.3974 24.6432 23.4614 23.888 22.3954 23.3738C19.8707 22.1821 16.9148 22.4465 14.6318 24.0682C14.377 24.2494 14.2369 24.5556 14.2645 24.8709C14.4693 27.4217 15.8738 29.7129 18.0333 31.0193C20.1923 32.3253 22.8384 32.4849 25.1333 31.4468V33.602C18.2986 33.9428 12.1613 37.973 9.03145 44.1753C8.90999 44.1667 8.78981 44.1667 8.66667 44.1667C3.64525 44.1667 0 47.5102 0 52.1167C0 52.6045 0.388053 53 0.866667 53H51.1333C51.6119 53 52 52.6045 52 52.1167C52 46.2426 47.5643 41.8565 41.3884 41.5421ZM30.3376 24.9779C32.1361 24.1299 34.2266 24.227 35.9417 25.2384C35.6053 27.2311 34.3319 28.9292 32.5343 29.7836C30.7362 30.6376 28.6419 30.5397 26.928 29.5209C27.2716 27.5313 28.5437 25.8366 30.3376 24.9779ZM19.4653 29.7814C17.6719 28.9227 16.4011 27.2276 16.0583 25.2384C17.7722 24.2201 19.8665 24.1217 21.6646 24.9762C23.4622 25.8306 24.7355 27.5283 25.072 29.5209C23.3564 30.5345 21.2642 30.6316 19.4653 29.7814ZM21.8055 20.2097C21.5681 20.0915 21.334 19.9634 21.1068 19.8237C21.0539 19.7918 21.0027 19.7538 20.9498 19.7206C20.8051 19.6274 20.662 19.5304 20.522 19.4299C20.7869 19.2418 21.0615 19.0676 21.3442 18.9084C21.5617 19.407 21.8165 19.8875 22.1059 20.346C22.0742 20.3309 22.0403 20.3184 22.0082 20.3033C21.9379 20.2718 21.8685 20.2433 21.8017 20.2097H21.8055ZM20.9456 3.24996C21.0002 3.21546 21.0522 3.17664 21.1077 3.143C21.3349 3.00411 21.566 2.87558 21.8008 2.75783C21.8694 2.72333 21.9405 2.69486 22.0099 2.66251L22.1025 2.62154C21.8131 3.08002 21.5583 3.56051 21.3408 4.05911C21.0577 3.89952 20.7831 3.7257 20.5173 3.53765C20.6574 3.43758 20.7987 3.3414 20.9422 3.2491L20.9456 3.24996ZM26 1.76667C27.0825 1.76667 28.2263 2.88766 29.0689 4.7807C28.0808 5.1236 27.044 5.29914 26 5.3C24.956 5.29914 23.9192 5.1236 22.9311 4.7807C23.7737 2.88766 24.9175 1.76667 26 1.76667ZM30.1983 2.75697C30.4366 2.87472 30.6698 3.00325 30.8966 3.143C30.9495 3.17491 30.9998 3.21201 31.0519 3.24522C31.1983 3.33364 31.3413 3.43629 31.4852 3.53679C31.2199 3.72484 30.9457 3.89909 30.6626 4.05825C30.4451 3.55965 30.1899 3.07916 29.9 2.62067L29.9986 2.66424C30.0629 2.69615 30.1323 2.72333 30.1983 2.75697ZM26 7.06667C27.2471 7.06365 28.4853 6.85015 29.6643 6.43522C30.0435 7.79171 30.2605 9.19003 30.3118 10.6H21.6882C21.7395 9.19003 21.9565 7.79171 22.3357 6.43522C23.5147 6.85015 24.7529 7.06365 26 7.06667ZM30.3118 12.3667C30.2605 13.7766 30.0435 15.175 29.6643 16.5314C27.2911 15.6895 24.7089 15.6895 22.3357 16.5314C21.9565 15.175 21.7395 13.7766 21.6882 12.3667H30.3118ZM26 17.6667C27.044 17.6675 28.0808 17.8431 29.0689 18.186C28.2263 20.079 27.0825 21.2 26 21.2C24.9175 21.2 23.7737 20.079 22.9311 18.186C23.9192 17.8431 24.956 17.6675 26 17.6667ZM31.0587 19.7167C31.0041 19.7521 30.9512 19.7909 30.8957 19.8245C30.6689 19.963 30.4374 20.0915 30.2026 20.2097C30.134 20.2442 30.0621 20.2735 29.9927 20.3059C29.9622 20.3201 29.9313 20.3318 29.9008 20.346C30.1903 19.8875 30.4451 19.407 30.6626 18.9084C30.9457 19.068 31.2203 19.2418 31.4861 19.4299C31.343 19.5295 31.2 19.6248 31.0587 19.7167ZM32.825 18.2533C32.3337 17.872 31.8119 17.533 31.2652 17.2401C31.7281 15.6563 31.9901 14.0186 32.0442 12.3667H35.4864C35.2866 14.5815 34.3472 16.6595 32.825 18.2533ZM35.4864 10.6H32.0442C31.9913 8.9485 31.7307 7.31079 31.2686 5.72657C31.8153 5.43371 32.3371 5.0947 32.8284 4.71341C34.3493 6.30799 35.2875 8.38563 35.4864 10.6ZM19.175 4.71341C19.6663 5.0947 20.1881 5.43371 20.7348 5.72657C20.2719 7.31036 20.0099 8.94807 19.9558 10.6H16.5136C16.7134 8.3852 17.6528 6.30756 19.175 4.71341ZM16.5136 12.3667H19.9558C20.0087 14.0182 20.2693 15.6563 20.7314 17.2401C20.1847 17.533 19.6629 17.872 19.1716 18.2533C17.6507 16.6587 16.7125 14.581 16.5136 12.3667ZM1.79131 51.2333C2.21533 48.0709 4.92367 45.9333 8.66667 45.9333C8.92734 45.9346 9.1876 45.9506 9.44658 45.9821C9.81644 46.0282 10.1728 45.8255 10.3289 45.4809C12.9585 39.7707 18.379 35.9264 24.546 35.3976C30.7133 34.8692 36.6878 37.7371 40.2158 42.9193C40.3745 43.1514 40.6322 43.2915 40.9094 43.2976C46.0044 43.3946 49.7847 46.6817 50.2188 51.2368L1.79131 51.2333Z" fill="#C2D1D9"/>
</svg>
