<svg width="50" height="53" viewBox="0 0 50 53" fill="none" xmlns="http://www.w3.org/2000/svg">
<path d="M47.2392 9.03334C47.2311 9.0317 47.223 9.03027 47.2149 9.02893C45.2719 8.71047 43.7329 9.88779 43.1991 12.1008L40.0063 21.6975C39.2031 21.2196 38.0681 20.9874 36.7838 21.7318C35.626 20.9098 34.2339 20.462 32.8056 20.462C32.6577 20.462 32.5074 20.4671 32.3556 20.4773C30.7304 18.2024 28.2142 16.7799 25.4446 16.5564V8.09333H27.9201C29.8591 8.09333 31.4367 6.51577 31.4367 4.57685V0.769494C31.4367 0.344425 31.0922 0 30.6672 0H27.4221C25.4831 0 23.9056 1.57756 23.9056 3.51648V5.16618C23.143 4.51642 22.1557 4.12285 21.0776 4.12285H16.8281C16.4031 4.12285 16.0586 4.46727 16.0586 4.89234V8.13386C16.0586 10.5418 18.0176 12.5009 20.4256 12.5009H23.9058V16.5564C21.1359 16.7799 18.6198 18.2024 16.9946 20.4773C16.8428 20.467 16.6925 20.462 16.5446 20.462C15.2162 20.462 13.9463 20.8352 12.8417 21.5444C11.7078 21.0344 10.7101 21.2653 9.98368 21.6975L6.79069 12.1008C6.25676 9.88769 4.71788 8.70995 2.77506 9.02893C2.76695 9.03027 2.75885 9.0317 2.75074 9.03334C0.221057 9.53136 -0.14317 11.9543 0.0404822 13.3073C0.0424315 13.322 0.0447913 13.3365 0.0476641 13.3509L2.97451 28.3761C3.34161 31.024 5.13361 32.5885 5.88843 33.1389C5.89838 33.1461 5.90854 33.1532 5.9188 33.16C11.2612 36.6763 11.3204 36.5247 12.3834 38.1865H10.8516C10.8511 38.1865 10.8506 38.1865 10.8501 38.1865C9.95813 38.1865 9.23173 38.9081 9.2306 39.7967V50.8042C9.2306 51.7563 10.005 52.5307 10.957 52.5307H23.9788C24.3563 52.5307 24.7061 52.4122 24.995 52.2115C25.2837 52.4122 25.6335 52.5307 26.0111 52.5307H31.208C31.633 52.5307 31.9775 52.1863 31.9775 51.7612C31.9775 51.3361 31.633 50.9917 31.208 50.9917H26.0111C25.8753 50.9917 25.7647 50.8811 25.7647 50.7452V44.5055H39.2202V50.8043C39.2202 50.9077 39.1362 50.9917 39.0329 50.9917H34.7991C34.3741 50.9917 34.0296 51.3361 34.0296 51.7612C34.0296 52.1863 34.3741 52.5307 34.7991 52.5307H39.0329C39.9849 52.5307 40.7593 51.7563 40.7593 50.8042V39.7957C40.7582 38.908 40.0319 38.1864 39.1404 38.1864C39.14 38.1864 39.1394 38.1864 39.139 38.1864H37.6069C38.6772 36.5131 38.7861 36.6386 44.0714 33.1599C44.0818 33.1532 44.0919 33.1461 44.1018 33.1388C44.8564 32.5886 46.6481 31.0245 47.0156 28.3769L47.6076 25.3373C47.6889 24.9202 47.4167 24.5161 46.9994 24.4348C46.5821 24.3533 46.1783 24.6258 46.0969 25.043L45.5005 28.1049C45.4972 28.1224 45.4943 28.1401 45.4921 28.1578C45.2202 30.1385 43.9522 31.3394 43.2094 31.8846C37.5433 35.6142 37.5624 35.3485 35.9994 37.8506C35.9318 37.9588 35.862 38.0707 35.789 38.1864H26.229C27.1578 32.7497 26.947 33.1711 30.3287 28.2863C31.1545 27.1421 31.8824 26.7915 37.4135 23.151C38.733 22.2818 39.5968 23.2843 39.7529 23.4889C39.7545 23.491 39.7564 23.4928 39.7581 23.4949C39.7613 23.4992 39.7641 23.5038 39.7676 23.508C39.9383 23.7302 40.4323 24.5106 39.6213 25.2245C38.1941 26.4805 34.8092 29.4835 34.7751 29.5137C34.4572 29.7957 34.4281 30.2821 34.7102 30.6001C34.9923 30.9182 35.4788 30.9469 35.7966 30.665C35.8306 30.6349 39.2134 27.634 40.6383 26.3799C41.9095 25.2609 41.7279 23.8256 41.2211 22.9219L44.6696 12.5571C44.6753 12.5399 44.6804 12.5225 44.6849 12.505L44.6952 12.4629C44.9364 11.4621 45.525 10.3189 46.9541 10.5458C48.6085 10.8803 48.4796 12.6694 48.4273 13.0798L46.7964 21.4518C46.7151 21.8689 46.9873 22.2731 47.4046 22.3543C47.8219 22.4359 48.2257 22.1634 48.307 21.7461L49.9424 13.3509C49.9451 13.3365 49.9476 13.322 49.9495 13.3074C50.1331 11.9544 49.7692 9.53167 47.2392 9.03334ZM20.4251 10.9618C18.8658 10.9618 17.5972 9.69326 17.5972 8.13386V5.66204H21.0772C22.6365 5.66204 23.9051 6.93057 23.9051 8.48998V10.9618H20.4251ZM25.4443 5.75982V3.51648C25.4443 2.42606 26.3315 1.53909 27.4217 1.53909H29.8973V4.57674C29.8973 5.66717 29.0101 6.55414 27.9198 6.55414H25.4442V5.75982H25.4443ZM6.78022 31.8847C6.03771 31.3397 4.77092 30.1398 4.49801 28.1613C4.49575 28.1423 4.49277 28.1237 4.48918 28.105L1.56234 13.08C1.51001 12.6694 1.38145 10.8804 3.03545 10.546C4.46538 10.3192 5.05307 11.4624 5.29428 12.4631L5.30464 12.5053C5.30905 12.5228 5.31418 12.5402 5.31993 12.5573L8.76839 22.9221C8.26165 23.8258 8.08005 25.2612 9.35126 26.38C10.7762 27.6341 14.1589 30.6349 14.193 30.6651C14.5109 30.9471 14.9972 30.9182 15.2793 30.6002C15.5614 30.2823 15.5322 29.7959 15.2144 29.5138C15.1803 29.4836 11.7954 26.4806 10.3682 25.2246C9.5581 24.5117 10.0501 23.7322 10.2213 23.509C10.2236 23.5061 10.2254 23.503 10.2277 23.5C10.2293 23.4979 10.2311 23.4961 10.2328 23.494C10.7572 22.8058 11.6055 22.5607 12.4936 23.1005C12.5436 23.1308 14.9342 24.6963 14.9832 24.7284C18.3679 26.9402 18.9777 27.3387 19.663 28.2892C19.6636 28.29 19.6642 28.2908 19.6647 28.2915C23.1259 33.2917 22.8601 32.912 23.7605 38.1864H14.2006C14.1275 38.0706 14.0576 37.9587 13.99 37.8505C12.4275 35.3494 12.4511 35.6174 6.78022 31.8847ZM23.9786 50.9916H10.9567C10.8534 50.9916 10.7694 50.9076 10.7694 50.8042V44.5054H24.225V50.7451H24.2251C24.2251 50.881 24.1145 50.9916 23.9786 50.9916ZM24.2251 39.8141V42.9665H10.7694V39.7977C10.7694 39.7508 10.8108 39.7256 10.8505 39.7256C11.2046 39.7256 23.8049 39.7256 24.1472 39.7256C24.1575 39.7256 24.1676 39.7281 24.1768 39.7327C24.178 39.7332 24.1787 39.7343 24.1798 39.7349C24.2059 39.7494 24.2251 39.7792 24.2251 39.8131V39.8141ZM39.1393 39.7255C39.1784 39.7255 39.2197 39.7507 39.2198 39.7966V42.9664H25.7641V39.8138V39.812C25.7641 39.8074 25.766 39.8031 25.7667 39.7986C25.773 39.7586 25.8047 39.7255 25.8419 39.7254C26.1849 39.7255 38.7845 39.7255 39.1393 39.7255ZM29.2546 27.1525C29.252 27.1557 29.2494 27.1589 29.2469 27.1622C25.6925 31.7667 25.2909 34.5201 24.9947 36.2515C24.716 34.6221 24.4996 33.542 24.0738 32.5092C23.372 30.8001 20.908 27.3533 20.5823 26.9625C19.7174 25.9245 18.6052 25.265 14.3733 22.49C14.3644 22.4842 14.355 22.478 14.346 22.4722C15.0302 22.1619 15.7745 22.0011 16.5439 22.0011C16.7787 22.0012 17.0229 22.0182 17.2696 22.0516C17.5659 22.0918 17.859 21.9566 18.0207 21.7049C19.4846 19.4249 21.972 18.0638 24.6746 18.0638C27.3772 18.0638 29.8646 19.425 31.3285 21.7049C31.4902 21.9567 31.7842 22.0918 32.0796 22.0516C32.3262 22.0182 32.5704 22.0012 32.8052 22.0012C33.7037 22.0012 34.5838 22.2293 35.3635 22.6553C31.1197 25.435 30.1343 26.0168 29.2546 27.1525Z" fill="#C2D1D9"/>
</svg>
