<svg width="53" height="51" viewBox="0 0 53 51" fill="none" xmlns="http://www.w3.org/2000/svg">
<path d="M4.9264 26.5256H2.65321C1.19025 26.5256 0 27.7159 0 29.1789V46.0006C0 47.4637 1.19025 48.6539 2.65321 48.6539H4.9264C6.38936 48.6539 7.57962 47.4637 7.57962 46.0006V29.1789C7.57962 27.7159 6.38936 26.5256 4.9264 26.5256ZM6.03899 46.0006C6.03899 46.6141 5.53994 47.1133 4.9264 47.1133H2.65321C2.03967 47.1133 1.54063 46.6141 1.54063 46.0006V29.1789C1.54063 28.5653 2.03967 28.0663 2.65321 28.0663H4.9264C5.53994 28.0663 6.03899 28.5653 6.03899 29.1789V46.0006Z" fill="#C2D1D9"/>
<path d="M51.9908 33.2433C51.0258 31.8249 49.0822 31.4494 47.6594 32.4055L43.585 35.1323C43.2499 33.8206 42.5796 32.6017 41.6347 31.6157C40.5233 30.4562 39.0749 29.6593 37.5121 29.3393C36.6115 26.4592 34.1133 24.3168 31.1138 23.8802C29.8869 22.8558 28.3844 22.2323 26.8021 22.0818V19.6609L28.6334 18.0755C29.54 18.4784 31.6465 19.3056 34.2502 19.6083C34.8963 19.6834 35.5284 19.7207 36.1466 19.7207C39.9364 19.7207 43.1845 18.3168 45.6195 15.6047C50.0188 10.7047 50.0037 3.10774 50.0009 2.78671C50.0009 2.78373 50.0003 2.78086 50.0002 2.77788C49.9995 2.74485 49.997 2.71191 49.9922 2.67939C49.9895 2.66 49.9853 2.64112 49.9813 2.62204C49.9803 2.61742 49.9793 2.61291 49.9781 2.60829C49.9197 2.34861 49.743 2.12382 49.4859 2.04009C49.1752 1.93893 48.8516 2.0244 48.6536 2.28192C48.5778 2.35148 48.0594 2.79327 46.581 3.33295C45.115 3.8681 42.3737 4.61287 37.6391 5.12156C31.9324 5.73459 29.5377 9.02012 28.5337 11.6682C27.6985 13.871 27.6777 15.9677 27.7142 16.8337L26.8023 17.6231V16.0641C26.8208 15.9677 26.8207 15.869 26.8023 15.7732V4.28086C26.8023 3.85538 26.4575 3.51055 26.032 3.51055C25.6065 3.51055 25.2617 3.85538 25.2617 4.28086V14.2204L24.567 13.619C24.5987 12.8026 24.5701 10.8975 23.8117 8.8969C22.8862 6.45596 20.6797 3.42765 15.4233 2.86304C11.1141 2.40001 8.61477 1.72368 7.27698 1.23767C5.93785 0.751346 5.45892 0.352748 5.3831 0.284417C5.18611 0.0257644 4.86343 -0.0593929 4.55225 0.0409491C4.29329 0.124465 4.1162 0.352133 4.05844 0.614171C4.05782 0.616736 4.05721 0.619403 4.05659 0.622071C4.05228 0.642386 4.04777 0.662495 4.045 0.683117C4.04018 0.715539 4.03771 0.748371 4.037 0.781305C4.03689 0.78428 4.03628 0.787153 4.03628 0.790128C4.03382 1.085 4.01986 8.06308 8.06319 12.5668C10.305 15.0636 13.2938 16.3558 16.7815 16.3558C17.3499 16.3558 17.9318 16.3215 18.5256 16.2523C20.8797 15.9787 22.7934 15.2375 23.6477 14.861L25.2616 16.2582V19.2206C25.2538 19.2847 25.2533 19.3495 25.2616 19.4138V22.0864C23.6947 22.2439 22.2078 22.8649 20.9916 23.8803C17.9921 24.3168 15.4939 26.4594 14.5933 29.3395C14.1913 29.4219 13.7951 29.5382 13.4078 29.6833C12.7373 29.592 12.0595 29.5451 11.3791 29.5451H10.3864C9.96097 29.5451 9.61613 29.8899 9.61613 30.3154C9.61613 30.7409 9.96097 31.0857 10.3864 31.0857H11.3791C12.0595 31.0857 12.7367 31.1391 13.4054 31.2406C13.6824 31.2826 13.9569 31.3335 14.2291 31.392C14.28 31.403 14.3309 31.4137 14.3816 31.4253C14.446 31.44 14.5103 31.4552 14.5744 31.4708C14.6564 31.4908 14.7382 31.5114 14.8198 31.5329C14.859 31.5432 14.8985 31.5531 14.9375 31.5636C15.0653 31.5985 15.1925 31.6351 15.3191 31.6738C15.3409 31.6804 15.3624 31.6874 15.3842 31.6941C15.5024 31.7309 15.6201 31.7689 15.7373 31.8088C15.7526 31.8141 15.7679 31.8191 15.7832 31.8243C16.0534 31.9175 16.3209 32.0192 16.585 32.1295C16.5962 32.1342 16.6073 32.1389 16.6185 32.1436C16.748 32.1981 16.8768 32.2543 17.0046 32.3128C17.0068 32.3137 17.0089 32.3148 17.0111 32.3157C17.1415 32.3755 17.271 32.4375 17.3995 32.5015C17.4152 32.5093 17.4307 32.5174 17.4463 32.5253C17.5516 32.5782 17.6562 32.6327 17.7601 32.6884C17.7894 32.7041 17.8187 32.7197 17.8479 32.7356C17.9665 32.8003 18.0846 32.8662 18.2013 32.9346C19.8983 33.9273 21.7459 34.5703 23.6928 34.8458C23.6995 34.8468 23.7061 34.8476 23.7127 34.8483L31.6707 35.7645C33.0527 35.9644 34.1133 37.0729 34.2515 38.4631L34.2818 38.7674L20.3113 38.2147C20.2518 38.2057 20.2135 38.1733 20.1913 38.1468C20.1677 38.1185 20.141 38.0709 20.147 38.0045C20.1854 37.5808 19.8731 37.2061 19.4494 37.1677C19.0251 37.129 18.651 37.4417 18.6126 37.8653C18.5708 38.3271 18.7112 38.7774 19.0083 39.1335C19.3052 39.4895 19.7229 39.7086 20.1847 39.7505C20.1976 39.7517 20.2106 39.7526 20.2237 39.753L35.9775 40.3762L38.0654 40.4933C38.0798 40.4942 38.0943 40.4946 38.1085 40.4946C38.1253 40.4946 38.1417 40.492 38.1582 40.4909C38.1732 40.4899 38.1881 40.4894 38.2029 40.4876C38.2296 40.4843 38.2557 40.4788 38.2817 40.4727C38.2943 40.4698 38.3071 40.4678 38.3195 40.4642C38.348 40.4561 38.3756 40.4454 38.403 40.434C38.4124 40.4301 38.4223 40.4273 38.4316 40.423C38.4679 40.4061 38.5033 40.3868 38.5369 40.3644L43.4587 37.0704C43.4591 37.0702 43.4594 37.0699 43.4597 37.0696L48.5172 33.6849C49.2401 33.1991 50.2268 33.3898 50.7166 34.1097C51.1645 34.768 51.0534 35.6629 50.4545 36.1947L40.5886 45.0679C39.7749 45.7276 38.7989 46.1637 37.7646 46.3297L22.4838 48.5325C22.477 48.5334 22.4696 48.5347 22.4629 48.5357C22.0096 48.6073 21.5367 48.5773 21.0578 48.4463L10.6795 44.5162C10.2815 44.3655 9.83693 44.5658 9.68631 44.9637C9.5357 45.3616 9.73607 45.8062 10.1338 45.9569L20.5449 49.8994C20.5657 49.9073 20.587 49.9144 20.6085 49.9204C21.0656 50.0494 21.5225 50.1142 21.9748 50.1142C22.2203 50.1142 22.4647 50.0951 22.7068 50.0568C22.7076 50.0567 22.7087 50.0565 22.7099 50.0563L37.9906 47.8536C37.9944 47.8531 37.9981 47.8525 38.0019 47.8519C39.312 47.6428 40.548 47.089 41.5763 46.2503C41.5859 46.2425 41.5954 46.2345 41.6046 46.2261L51.481 37.3433C52.6539 36.3024 52.8729 34.5396 51.9908 33.2433ZM44.4732 14.5755C41.9636 17.3708 38.5984 18.5509 34.474 18.0832C32.627 17.8738 31.0267 17.3643 30.0122 16.9754C30.5749 16.5525 31.1212 16.1626 31.6516 15.8033C32.4873 16.1723 34.4538 16.9298 36.5155 16.9298C36.838 16.9298 37.163 16.9112 37.4862 16.8698C37.9082 16.8155 38.2063 16.4295 38.1521 16.0076C38.0979 15.5856 37.7117 15.2868 37.29 15.3418C35.8511 15.5262 34.3122 15.1405 33.2546 14.7748C35.5661 13.3725 37.5795 12.4958 39.4346 11.6887C39.6081 11.6132 39.7799 11.5385 39.9503 11.464C40.5408 11.6452 41.9235 11.9934 43.8358 11.9934C43.8785 11.9934 43.9219 11.9932 43.9651 11.9929C44.3905 11.9894 44.7324 11.6417 44.7291 11.2164C44.7256 10.7931 44.3815 10.4524 43.9589 10.4524C43.9567 10.4524 43.9545 10.4524 43.9524 10.4524C43.3472 10.4568 42.8006 10.4219 42.3226 10.3684C44.4229 9.30873 46.3257 8.00141 48.2206 5.60316C47.8488 8.13746 46.8992 11.8733 44.4732 14.5755ZM29.9742 12.2143C31.2118 8.94953 33.8462 7.07853 37.8035 6.65336C42.1957 6.18151 45.0239 5.50312 46.8267 4.87768C44.6071 7.59492 42.3754 8.7154 39.6035 9.93387C39.6013 9.93479 39.5991 9.93582 39.5968 9.93674C39.3425 10.0486 39.084 10.1611 38.82 10.2759C38.2232 10.5355 37.6102 10.8025 36.9771 11.0904C37.0901 10.5029 37.2944 9.77556 37.664 9.05931C37.859 8.68124 37.7108 8.21656 37.3327 8.02152C36.9546 7.82658 36.4899 7.97464 36.2949 8.35282C35.5745 9.74878 35.3736 11.1655 35.3176 11.879C33.5092 12.7812 31.5232 13.9289 29.2681 15.607C29.3236 14.699 29.4975 13.4717 29.9742 12.2143ZM18.3477 14.722C14.5743 15.1605 11.5005 14.089 9.20953 11.5374C7.07332 9.15812 6.19353 5.89618 5.83094 3.59406C6.72561 4.69413 7.67455 5.59926 8.72619 6.36075C9.43299 6.87252 10.1618 7.30138 10.9111 7.6891C10.441 7.73271 9.90392 7.75487 9.30875 7.73496C8.88789 7.71978 8.52745 8.05405 8.51319 8.47922C8.49903 8.90439 8.83228 9.26051 9.25745 9.27477C9.42345 9.28031 9.58546 9.28288 9.74366 9.28288C11.4771 9.28288 12.7389 8.97159 13.2969 8.80241C13.4463 8.86766 13.5961 8.93291 13.7469 8.99858C15.4113 9.72262 17.2147 10.5073 19.2786 11.748C18.3014 12.0744 16.9265 12.395 15.6466 12.2039C15.2261 12.1413 14.8338 12.4312 14.771 12.852C14.7082 13.2728 14.9984 13.6648 15.4191 13.7276C15.7601 13.7785 16.1031 13.8008 16.4437 13.8008C18.3164 13.8008 20.1018 13.1238 20.8898 12.7788C21.3359 13.0817 21.7939 13.4076 22.2649 13.7594C21.3473 14.1042 19.9552 14.5351 18.3477 14.722ZM17.603 9.07091C17.5422 8.33917 17.3204 6.87847 16.5123 5.50733C16.2962 5.14095 15.8242 5.01896 15.4576 5.23472C15.0911 5.4508 14.969 5.92296 15.185 6.28944C15.5853 6.96865 15.8073 7.68859 15.9307 8.27792C15.3928 8.03466 14.8709 7.8075 14.3616 7.58589C11.5572 6.36578 9.36682 5.4114 7.2031 2.83821C8.86767 3.39276 11.4103 3.98117 15.2588 4.39464C18.8344 4.77877 21.221 6.46109 22.3526 9.39471C22.7738 10.4867 22.9407 11.5629 23.0012 12.3874C20.9947 10.9054 19.221 9.8799 17.603 9.07091ZM37.8945 38.9407L35.836 38.8252L35.7847 38.3105C35.5758 36.2086 33.969 34.5338 31.8773 34.2377C31.8707 34.2366 31.8641 34.2358 31.8574 34.2351L23.8991 33.3189C22.155 33.0708 20.4999 32.4941 18.9794 31.6047C18.8444 31.5257 18.7083 31.4495 18.5713 31.3749C18.5352 31.3553 18.4987 31.3365 18.4624 31.3172C18.358 31.2615 18.2532 31.2068 18.1477 31.1535C18.1104 31.1348 18.073 31.1164 18.0355 31.0979C17.9252 31.0434 17.8144 30.9905 17.703 30.9388C17.6732 30.925 17.6435 30.9112 17.6136 30.8975C17.4826 30.8378 17.3508 30.7801 17.2182 30.7243C17.2079 30.7199 17.1976 30.7153 17.1872 30.711C16.8856 30.5848 16.5802 30.4686 16.2709 30.3625C16.2629 30.3597 16.2548 30.3573 16.2468 30.3545C16.1442 30.3195 16.0415 30.2846 15.9381 30.2519C15.9438 30.2339 15.9491 30.2157 15.9536 30.197C16.5781 27.6163 18.7696 25.6804 21.4067 25.3796C21.5643 25.3615 21.7125 25.2954 21.831 25.1902C22.9961 24.1554 24.4953 23.5857 26.0527 23.5857C27.6102 23.5857 29.1096 24.1556 30.2746 25.1902C30.3931 25.2953 30.5412 25.3615 30.6988 25.3796C33.336 25.6804 35.5275 27.6163 36.152 30.197C36.2266 30.5052 36.4823 30.7362 36.7965 30.779C39.5511 31.1553 41.7617 33.3398 42.2068 36.0546L37.8945 38.9407Z" fill="#C2D1D9"/>
</svg>
