<svg width="52" height="50" viewBox="0 0 52 50" fill="none" xmlns="http://www.w3.org/2000/svg">
<path d="M50.9903 33.9654C50.3507 33.4255 49.5057 33.1993 48.6824 33.3423L32.0667 36.2326V30.3011C33.3476 30.2231 35.7058 29.8531 37.3325 28.2272C39.6119 25.9496 39.4333 22.2091 39.4238 22.0513C39.4004 21.6093 39.0477 21.2575 38.6065 21.2341C38.4497 21.2202 34.7074 21.0469 32.4307 23.3245C32.3007 23.4545 32.1811 23.5905 32.0667 23.7283V20.7739C33.3476 20.6959 35.7058 20.3258 37.3325 18.6999C39.6119 16.4223 39.4333 12.6818 39.4238 12.5241C39.4004 12.0821 39.0477 11.7302 38.6065 11.7068C38.4497 11.6947 34.7074 11.5196 32.4307 13.7981C32.3007 13.9281 32.1811 14.0641 32.0667 14.2019V11.6279L36.9304 6.86472C37.7061 6.10552 38.1333 5.09326 38.1333 4.01686C38.1333 2.93959 37.7061 1.92732 36.9304 1.16812C36.9304 1.16726 36.9295 1.16726 36.9295 1.16726C35.3522 -0.377145 32.7929 -0.388411 31.2 1.13172C29.6062 -0.389278 27.0478 -0.377145 25.4696 1.16812C24.6939 1.92732 24.2667 2.93959 24.2667 4.01686C24.2667 5.09326 24.6939 6.10552 25.4705 6.86559L30.3333 11.6271V14.2011C30.2189 14.0624 30.0993 13.9272 29.9693 13.7972C27.6926 11.5179 23.9503 11.6938 23.7935 11.7059C23.3515 11.7293 22.9996 12.0821 22.9762 12.5232C22.9667 12.6809 22.7881 16.4215 25.0675 18.6991C26.6942 20.3267 29.0524 20.6959 30.3333 20.773V23.7275C30.2189 23.5888 30.0993 23.4527 29.9693 23.3236C27.6917 21.046 23.9521 21.2202 23.7935 21.2332C23.3515 21.2566 22.9996 21.6093 22.9762 22.0505C22.9667 22.2082 22.7881 25.9487 25.0675 28.2263C26.6942 29.8539 29.0524 30.2231 30.3333 30.3003V35.1701L26.6127 31.4495C26.4507 31.2874 26.2305 31.1964 26 31.1964H17.3333C17.3333 30.7171 16.9459 30.3297 16.4667 30.3297H13H0V32.0631H12.1333V44.1964H0V45.9297H13H16.4667C16.9459 45.9297 17.3333 45.5423 17.3333 45.0631H19.7288L28.9943 49.6963C29.3947 49.8965 29.8289 49.997 30.2614 49.997C30.7545 49.997 31.2468 49.8679 31.6879 49.6105L50.5951 38.5804C51.4618 38.0751 52 37.1383 52 36.1347C52 35.2957 51.6317 34.5053 50.9903 33.9654ZM33.6561 24.5491C34.8244 23.3808 36.6236 23.0671 37.6731 22.9865C37.5943 24.0334 37.2823 25.8257 36.1071 27.0009C34.9388 28.1691 33.1396 28.4829 32.0909 28.5635C32.1698 27.5165 32.4818 25.7243 33.6561 24.5491ZM33.6561 15.0227C34.8244 13.8535 36.6236 13.5398 37.6731 13.4592C37.5943 14.5061 37.2823 16.2984 36.1071 17.4736C34.9397 18.641 33.1431 18.9547 32.0935 19.0362C32.175 17.9867 32.4887 16.1901 33.6561 15.0227ZM26.2929 17.4736C25.1238 16.3053 24.8101 14.5061 24.7295 13.4566C25.7764 13.5355 27.5687 13.8475 28.7439 15.0227C29.9113 16.1901 30.225 17.9867 30.3065 19.0362C29.2569 18.9547 27.4603 18.641 26.2929 17.4736ZM26.2929 27.0009C25.1238 25.8326 24.8101 24.0325 24.7295 22.9839C25.7764 23.0627 27.5687 23.3739 28.7439 24.5491C29.9113 25.7173 30.225 27.5139 30.3065 28.5635C29.2569 28.482 27.4603 28.1683 26.2929 27.0009ZM15.6 44.1964H13.8667V32.0631H15.6V44.1964ZM26.6829 5.62712C26.2427 5.19552 26 4.62352 26 4.01686C26 3.40932 26.2427 2.83732 26.6821 2.40659C27.1431 1.95506 27.7481 1.72972 28.3539 1.72972C28.9579 1.72972 29.5637 1.95592 30.0248 2.40659L30.5942 2.96472C30.9313 3.29492 31.4695 3.29492 31.8058 2.96472L32.3752 2.40659C33.2965 1.50526 34.7949 1.50526 35.7162 2.40572C36.1573 2.83646 36.4 3.40932 36.4 4.01686C36.4 4.62352 36.1573 5.19552 35.7179 5.62626L31.2 10.0506L26.6829 5.62712ZM49.7215 37.0828L30.8152 48.1129C30.4945 48.3009 30.1037 48.3122 29.77 48.1458L20.3216 43.4216C20.2011 43.3609 20.0677 43.3297 19.9333 43.3297H17.3333V32.9297H25.6412L32.4697 39.7582C32.7643 40.0529 32.9333 40.4611 32.9333 40.8788C32.9333 41.7524 32.2227 42.4631 31.3491 42.4631C30.9322 42.4631 30.5231 42.2941 30.2285 41.9994L25.7461 37.517L24.5206 38.7425L29.003 43.2249C29.6296 43.8515 30.4625 44.1964 31.3491 44.1964C33.1777 44.1964 34.6667 42.7075 34.6667 40.8788C34.6667 39.9931 34.3217 39.1593 33.6951 38.5327L32.9931 37.8307L48.9779 35.0505C49.3003 34.9924 49.6253 35.0825 49.8741 35.2923C50.1237 35.502 50.2667 35.8088 50.2667 36.1338C50.2667 36.5229 50.0578 36.8869 49.7215 37.0828Z" fill="#C2D1D9"/>
<path d="M18.1998 2.59637H16.4665C16.4665 4.02984 15.2999 5.19637 13.8665 5.19637V6.92971C15.2999 6.92971 16.4665 8.09624 16.4665 9.52971H18.1998C18.1998 8.09624 19.3663 6.92971 20.7998 6.92971V5.19637C19.3663 5.19637 18.1998 4.02984 18.1998 2.59637ZM17.3331 6.95657C17.0801 6.61597 16.7802 6.31611 16.4396 6.06304C16.7802 5.80997 17.0801 5.51011 17.3331 5.16951C17.5862 5.51011 17.8861 5.80997 18.2267 6.06304C17.8861 6.31611 17.5862 6.61597 17.3331 6.95657Z" fill="#C2D1D9"/>
<path d="M12.9998 10.3964H11.2665C11.2665 11.8298 10.1 12.9964 8.6665 12.9964V14.7297C10.1 14.7297 11.2665 15.8962 11.2665 17.3297H12.9998C12.9998 15.8962 14.1664 14.7297 15.5998 14.7297V12.9964C14.1664 12.9964 12.9998 11.8298 12.9998 10.3964ZM12.1332 14.7566C11.8801 14.416 11.5802 14.1161 11.2396 13.863C11.5802 13.61 11.8801 13.3101 12.1332 12.9695C12.3862 13.3101 12.6861 13.61 13.0267 13.863C12.6861 14.1161 12.3862 14.416 12.1332 14.7566Z" fill="#C2D1D9"/>
<path d="M45.9332 6.06311H44.1999C44.1999 7.49658 43.0333 8.66311 41.5999 8.66311V10.3964C43.0333 10.3964 44.1999 11.563 44.1999 12.9964H45.9332C45.9332 11.563 47.0997 10.3964 48.5332 10.3964V8.66311C47.0997 8.66311 45.9332 7.49658 45.9332 6.06311ZM45.0665 10.4233C44.8135 10.0827 44.5136 9.78284 44.173 9.52978C44.5136 9.27671 44.8135 8.97684 45.0665 8.63624C45.3196 8.97684 45.6195 9.27671 45.9601 9.52978C45.6195 9.78284 45.3196 10.0827 45.0665 10.4233Z" fill="#C2D1D9"/>
<path d="M17.3332 26.863H15.5999V28.5964H17.3332V26.863Z" fill="#C2D1D9"/>
<path d="M13.8669 26.863H12.1335V28.5964H13.8669V26.863Z" fill="#C2D1D9"/>
<path d="M10.3998 26.863H8.6665V28.5964H10.3998V26.863Z" fill="#C2D1D9"/>
</svg>
