<svg width="50" height="50" viewBox="0 0 50 50" fill="none" xmlns="http://www.w3.org/2000/svg">
<path d="M34 11C34 6.58164 29.9707 3 25 3C20.0293 3 16 6.58164 16 11C16 15.418 20.0293 19 25 19C29.968 18.9949 33.9943 15.416 34 11ZM21.4 16.5336V15.8C21.4 14.0324 23.0115 12.6 25 12.6C26.9881 12.6 28.6 14.0324 28.6 15.8V16.5336C26.3759 17.6887 23.6241 17.6887 21.4 16.5336ZM23.2 9.4C23.2 8.51602 24.006 7.8 25 7.8C25.994 7.8 26.8 8.51602 26.8 9.4C26.8 10.2836 25.994 11 25 11C24.006 11 23.2 10.2836 23.2 9.4ZM17.8 11C17.7925 8.14453 19.9133 5.63047 22.9987 4.83711C26.0846 4.04336 29.3879 5.16289 31.0965 7.58047C32.8051 9.99805 32.5054 13.1293 30.3622 15.2559C30.1754 13.7086 29.1471 12.341 27.6099 11.5957C28.9669 10.3313 28.9313 8.33281 27.5304 7.10664C26.129 5.88086 23.8807 5.88086 22.4793 7.10664C21.0783 8.33281 21.0427 10.3313 22.3998 11.5957C20.8687 12.3469 19.8408 13.7094 19.6404 15.2535C18.4574 14.0859 17.8018 12.5711 17.8 11Z" fill="#C2D1D9"/>
<path d="M39.7965 39.193C36.5173 34.7095 31.3831 31.9525 25.8333 31.6954V29.6706C26.7786 30.0876 27.7999 30.3057 28.8334 30.3114C32.714 30.3126 35.9501 27.3449 36.2842 23.4797C36.3106 23.1819 36.1759 22.8931 35.9306 22.7222C33.7358 21.193 30.8936 20.9436 28.4656 22.0673C27.4422 22.5489 26.5417 23.2576 25.8333 24.1396V21.6299C31.637 21.1824 36.0494 16.2295 35.8252 10.4141C35.601 4.59904 30.8207 0 25 0C19.1789 0 14.3986 4.59904 14.1748 10.4141C13.9506 16.2295 18.363 21.1824 24.1667 21.6299V24.1396C23.4591 23.254 22.5586 22.5412 21.534 22.0567C19.106 20.9331 16.2642 21.182 14.069 22.7113C13.8241 22.8821 13.6894 23.1714 13.7158 23.4687C13.9128 25.8747 15.2633 28.0357 17.3393 29.2675C19.4157 30.4997 21.96 30.6498 24.1667 29.6706V31.7035C17.5948 32.0253 11.6931 35.8266 8.68408 41.6766C8.5673 41.6684 8.45174 41.6684 8.33333 41.6684C3.50505 41.6684 0 44.8217 0 49.1668C0 49.627 0.373128 50 0.833333 50H49.1667C49.6269 50 50 49.627 50 49.1668C50 43.626 45.7349 39.4895 39.7965 39.193ZM29.1707 23.5696C30.8997 22.769 32.9102 22.861 34.5589 23.8154C34.2358 25.6948 33.0115 27.2965 31.283 28.102C29.554 28.9079 27.5399 28.8151 25.8923 27.8546C26.2227 25.978 27.4455 24.3796 29.1707 23.5696ZM18.7166 28.1003C16.9922 27.29 15.7703 25.6916 15.4407 23.8154C17.0882 22.8545 19.1024 22.7621 20.8313 23.568C22.5598 24.3735 23.7842 25.9751 24.1073 27.8546C22.4581 28.8102 20.446 28.9022 18.7166 28.1003ZM15.8333 10.8416C15.8333 5.78003 19.9373 1.67689 25 1.67689C30.0627 1.67689 34.1667 5.78003 34.1667 10.8416C34.1667 15.9028 30.0627 20.0063 25 20.0063C19.9398 20.0002 15.839 15.9004 15.8333 10.8416ZM1.72241 48.3337C2.12972 45.3509 4.73389 43.3347 8.33333 43.3347C8.58398 43.3356 8.83423 43.351 9.08325 43.3803C9.43888 43.4259 9.78271 43.2343 9.93164 42.908C12.4597 37.5222 17.6721 33.8958 23.6019 33.3975C29.5317 32.8987 35.2767 35.6036 38.669 40.4919C38.8216 40.7104 39.0694 40.843 39.3359 40.8483C44.235 40.9402 47.8699 44.0402 48.2874 48.3369L1.72241 48.3337Z" fill="#C2D1D9"/>
</svg>
