<svg width="24" height="24" viewBox="0 0 24 24" fill="none" xmlns="http://www.w3.org/2000/svg">
<g clip-path="url(#clip0)">
<path d="M23.3004 13.1463C22.9237 12.9471 22.4718 12.9428 22.0917 13.1353L20.6125 13.8836C21.7134 12.5272 22.3742 10.7998 22.3742 8.92056C22.3742 4.57034 18.8351 1.03128 14.4851 1.03128C10.1349 1.03128 6.59583 4.57034 6.59583 8.92056C6.59583 10.0815 6.84778 11.2134 7.33099 12.2498C7.25867 12.2249 7.18707 12.2014 7.11676 12.1813C6.78113 12.0846 6.14868 12.042 4.539 12.7813C4.22882 12.9238 3.9375 13.0703 3.6925 13.199V12.3141C3.6925 12.0539 3.48157 11.8429 3.22137 11.8429H0.47113C0.210938 11.8429 0 12.0539 0 12.3141V22.5169C0 22.7771 0.210938 22.988 0.47113 22.988H3.22137C3.48157 22.988 3.6925 22.7771 3.6925 22.5169V21.6872H9.40979C9.6698 21.6872 9.88092 21.4763 9.88092 21.2163C9.88092 20.9561 9.6698 20.7451 9.40979 20.7451H3.6925V14.2685C4.91162 13.5779 6.40027 12.9555 6.85638 13.0868C7.15155 13.1715 7.50476 13.3277 7.87866 13.4929C8.68121 13.8476 9.68005 14.289 10.7972 14.3365C12.3138 14.4011 13.7311 14.903 13.931 15.1529C14.0473 15.3622 14.0834 15.7641 14.0522 15.9813H8.52539C7.82025 15.9813 7.43463 16.2776 7.23523 16.526C6.74103 17.1422 6.91443 18.0052 6.93585 18.1015C6.99225 18.3554 7.2442 18.5171 7.49817 18.4604C7.75232 18.404 7.91272 18.1537 7.85632 17.8997C7.82831 17.7671 7.78967 17.3379 7.97168 17.1136C8.00995 17.0666 8.12604 16.9234 8.52539 16.9234H14.2852C14.2859 16.9234 14.2866 16.9236 14.2874 16.9236C14.2879 16.9236 14.2885 16.9234 14.289 16.9234H14.7731C16.0285 16.9234 17.2842 16.6238 18.4043 16.0569L22.517 13.9757C22.6249 13.9212 22.7529 13.9225 22.8596 13.9789C22.9819 14.0437 23.0579 14.1698 23.0579 14.3083V14.9658C23.0579 15.0848 23.0002 15.1976 22.9039 15.2675L17.8132 18.956C17.1746 19.4187 16.4251 19.7276 15.6451 19.8496L13.0706 20.2564C12.8137 20.2969 12.6381 20.5382 12.6788 20.7953C12.7156 21.0273 12.9157 21.1928 13.1435 21.1928C13.168 21.1928 13.1927 21.191 13.2177 21.187L15.7914 20.7803C16.717 20.6357 17.6074 20.2687 18.366 19.719L23.4567 16.0307C23.7969 15.7841 24 15.386 24 14.966V14.3084C24 13.8201 23.7319 13.3748 23.3004 13.1463ZM2.75024 22.0457H0.942261V12.785H2.75024V22.0457ZM13.1913 13.7912C12.4611 13.5722 11.603 13.4277 10.8373 13.3953C10.0889 13.3634 9.38452 13.1126 8.74054 12.8405C8.73029 12.8181 8.71875 12.7964 8.70483 12.7753C7.94147 11.6333 7.53809 10.3003 7.53809 8.92056C7.53809 5.09 10.6544 1.97354 14.4851 1.97354C18.3157 1.97354 21.4321 5.08981 21.4321 8.92056C21.4321 12.5755 18.5949 15.5801 15.0073 15.848V12.648C15.0081 12.6252 15.0088 12.5829 15.0073 12.5241V11.3381C16.3271 11.3324 17.4225 10.9475 18.2682 10.1902C19.8214 8.79935 19.9365 6.66873 19.9407 6.57864C19.9471 6.4404 19.8924 6.30655 19.7911 6.21225C19.6901 6.11795 19.5522 6.07291 19.4152 6.0892C16.5667 6.42429 15.2624 7.68973 14.6699 8.69241C14.293 9.33017 14.15 9.94302 14.0967 10.3574C13.784 10.0256 13.4028 9.75406 12.971 9.56766L10.9955 8.71548C10.9664 8.70285 10.9362 8.69333 10.905 8.68692C10.8391 8.673 10.8082 8.66531 10.7869 8.66019C10.7108 8.64096 10.6813 8.63693 10.5115 8.61697C10.3738 8.60068 10.2367 8.6459 10.1354 8.74002C10.0344 8.83432 9.97961 8.96835 9.98602 9.10641C9.9895 9.18222 10.0865 10.9778 11.3965 12.1507C12.0936 12.7751 12.9899 13.0994 14.0651 13.1197V14.1259C13.8278 14.0067 13.5366 13.8948 13.1913 13.7912ZM15.0425 10.396C15.091 10.0836 15.2067 9.63596 15.481 9.17178C16.1104 8.10666 17.2643 7.41653 18.9153 7.11551C18.7844 7.74503 18.4556 8.7576 17.6398 9.48837C16.9801 10.0791 16.1082 10.3834 15.0425 10.396ZM14.0219 12.1767C13.2083 12.1498 12.5402 11.9076 12.0308 11.454C11.4661 10.951 11.1883 10.2721 11.053 9.76614L12.5978 10.4326C13.3347 10.7505 13.8682 11.4093 14.0219 12.1767Z" fill="#C2D1D9"/>
<path d="M11.5338 20.6818L11.5208 20.6733C11.3024 20.5318 11.0107 20.5942 10.8693 20.8125C10.7278 21.0309 10.79 21.3226 11.0085 21.464L11.0215 21.4726C11.1008 21.5239 11.1894 21.5482 11.2773 21.5482C11.4316 21.5482 11.5829 21.4726 11.673 21.3332C11.8145 21.115 11.7522 20.8233 11.5338 20.6818Z" fill="#C2D1D9"/>
<path d="M10.1384 6.7026C10.1469 6.6766 11.0113 4.11129 13.7207 3.85989C13.9796 3.8359 14.1702 3.60647 14.1462 3.34738C14.1221 3.08828 13.8939 2.89804 13.6335 2.92184C12.2579 3.04947 11.0618 3.69272 10.1749 4.78256C9.51148 5.59756 9.25312 6.37851 9.24249 6.41128C9.16193 6.65866 9.29743 6.92453 9.5448 7.00491C9.59314 7.02066 9.64221 7.02816 9.69055 7.02816C9.88922 7.02816 10.0738 6.90164 10.1384 6.7026Z" fill="#C2D1D9"/>
<path d="M15.2391 3.90106L15.2521 3.90949C15.3314 3.96094 15.42 3.98529 15.5079 3.98529C15.6623 3.98529 15.8135 3.90949 15.9036 3.77033C16.0452 3.55206 15.9829 3.26038 15.7645 3.11884L15.7515 3.11041C15.533 2.96887 15.2413 3.03131 15.1 3.24957C14.9584 3.46802 15.0209 3.75971 15.2391 3.90106Z" fill="#C2D1D9"/>
</g>
<defs>
<clipPath id="clip0">
<rect width="24" height="24" fill="white"/>
</clipPath>
</defs>
</svg>
