<svg width="50" height="50" viewBox="0 0 50 50" fill="none" xmlns="http://www.w3.org/2000/svg">
<g clip-path="url(#clip0)">
<path d="M48.4447 24.933C47.6601 24.5175 46.7186 24.5088 45.9267 24.9097L37.3585 29.2451C35.437 30.2175 33.2985 30.7618 31.1462 30.8309C31.218 29.9173 31.0299 28.84 30.6229 28.1274C30.2204 27.4228 29.1306 26.8003 27.3842 26.2761C25.8629 25.8199 24.0753 25.5189 22.48 25.4514C20.5235 25.3678 18.7099 24.5664 17.1097 23.8595C16.2678 23.4872 15.472 23.1359 14.7285 22.9222C14.0293 22.7212 12.7117 22.6319 9.35822 24.1723C8.71239 24.4691 8.10509 24.7743 7.59468 25.0424V23.1988C7.59468 22.6567 7.15523 22.2173 6.61316 22.2173H0.883865C0.341797 22.2173 -0.0976562 22.6567 -0.0976562 23.1988V44.4547C-0.0976562 44.9967 0.341797 45.4362 0.883865 45.4362H6.61354C7.15561 45.4362 7.59506 44.9967 7.59506 44.4547V42.7266H17.6163C17.6758 42.7266 17.7338 42.7266 17.7914 42.727C17.8719 42.7278 17.9523 42.7281 18.0332 42.7281C19.8021 42.7281 21.6213 42.584 23.4436 42.299L32.8011 40.8368C34.7294 40.5355 36.5845 39.7706 38.1649 38.6254L48.7705 30.9415C49.4793 30.428 49.9023 29.5987 49.9023 28.7236V27.3534C49.9023 26.3364 49.3439 25.4087 48.4447 24.933ZM47.9393 28.7236C47.9393 28.9716 47.8195 29.2066 47.6185 29.3519L37.0132 37.0359C35.6827 37.9998 34.1213 38.6438 32.4978 38.897L23.1407 40.3596C21.3398 40.6411 19.5446 40.7762 17.8066 40.764C17.7444 40.7636 17.6811 40.7632 17.6163 40.7632H7.59506V37.6931C7.59506 37.1511 7.15561 36.7116 6.61354 36.7116C6.07147 36.7116 5.63202 37.1511 5.63202 37.6931V43.4732H1.86539V24.1799H5.63202V30.0218C5.63202 30.5638 6.07147 31.0029 6.61354 31.0029C7.15561 31.0029 7.59506 30.5638 7.59506 30.0218V27.2706C10.1337 25.8313 13.2343 24.5351 14.1865 24.8086C14.8014 24.9852 15.5373 25.3106 16.3166 25.6547C17.9886 26.3936 20.0695 27.3133 22.3965 27.4121C25.5562 27.5468 28.5088 28.5924 28.9253 29.1131C29.1676 29.5495 29.2427 30.3865 29.1779 30.8389H17.6636C16.1945 30.8389 15.3912 31.4561 14.9757 31.9738C13.9462 33.2574 14.3074 35.0553 14.352 35.2563C14.4695 35.7854 14.994 36.1192 15.5231 36.0013C16.0522 35.8838 16.386 35.3593 16.2682 34.8302C16.2193 34.6101 16.1163 33.6888 16.507 33.2021C16.5863 33.1033 16.8278 32.8019 17.6636 32.8019H29.6619H29.6677H29.6715H30.6793C33.2951 32.8019 35.9112 32.1775 38.2446 30.9968L46.8128 26.661C47.0375 26.5473 47.3042 26.55 47.5266 26.6675C47.7814 26.8026 47.9393 27.0654 47.9393 27.3534V28.7236Z" fill="#C2D1D9"/>
<path d="M25.6502 21.7766C27.0128 22.5727 28.5372 22.9713 30.2077 22.9713C31.1793 22.9713 32.2012 22.8348 33.2678 22.5643C34.3348 22.8348 35.3564 22.9713 36.3283 22.9713C37.9984 22.9713 39.5231 22.5727 40.8854 21.7766C44.5105 19.6579 45.5961 15.501 45.6404 15.3252C45.711 15.0459 45.6553 14.7495 45.4882 14.5149C45.3207 14.2803 45.059 14.1312 44.7718 14.1068C41.9214 13.8657 39.48 14.1975 37.4838 15.0928C37.4861 14.9796 37.4872 14.8659 37.4861 14.7511C37.4811 14.212 37.0428 13.7787 36.505 13.7787C36.5019 13.7787 36.4989 13.7787 36.4958 13.7787C35.9537 13.7836 35.5181 14.2273 35.5234 14.7694C35.5517 17.8463 34.0937 19.5641 33.2815 20.3434C32.6933 19.7186 31.7145 18.4502 31.2578 16.5619C30.5918 13.8073 31.262 10.7609 33.2506 7.48863C33.3063 7.58553 33.3624 7.68394 33.42 7.78503L33.473 7.87773C33.7412 8.34885 34.3409 8.51288 34.8116 8.24432C35.2823 7.97577 35.4468 7.37648 35.1782 6.90575L35.1256 6.81343C34.8097 6.25916 34.5114 5.7354 34.0727 5.10712C33.8892 4.84428 33.5886 4.6875 33.2678 4.6875C32.9474 4.6875 32.6468 4.84428 32.4633 5.10712C30.0169 8.61168 28.8794 11.9629 29.0648 15.0986C27.0659 14.1994 24.6199 13.8657 21.7642 14.1071C21.477 14.1312 21.2149 14.2807 21.0478 14.5149C20.8803 14.7499 20.825 15.0459 20.8952 15.3252C20.9399 15.501 22.0255 19.6579 25.6502 21.7766ZM43.315 15.9958C42.7935 17.1837 41.7399 19.0094 39.881 20.0901C38.5878 20.8416 37.0772 21.13 35.3747 20.9553C36.2208 19.928 36.8139 18.7763 37.1519 17.5087C38.7274 16.4608 40.7908 15.9538 43.315 15.9958ZM29.505 17.5915C29.9433 19.0399 30.6269 20.1645 31.2285 20.9488C29.4981 21.1384 27.965 20.8515 26.6546 20.0901C24.7954 19.0094 23.7417 17.1833 23.2207 15.9958C25.8074 15.9519 27.9146 16.4879 29.505 17.5915Z" fill="#C2D1D9"/>
<path d="M22.5061 8.23754L23.4579 9.03366C23.6413 9.1874 23.8649 9.26255 24.0869 9.26255C24.3677 9.26255 24.6461 9.14276 24.8403 8.91083C25.1882 8.49503 25.1329 7.87629 24.7175 7.52839L23.7657 6.73226C23.3507 6.38436 22.7312 6.43929 22.3833 6.85509C22.0354 7.2709 22.0907 7.88964 22.5061 8.23754Z" fill="#C2D1D9"/>
<path d="M23.6107 10.1362C23.0919 9.9809 22.5449 10.2754 22.3892 10.795C22.2336 11.3141 22.5285 11.8612 23.048 12.0164L24.2367 12.3723C24.3305 12.4006 24.4251 12.4139 24.5182 12.4139C24.9405 12.4139 25.3307 12.1389 25.4582 11.7135C25.6138 11.1944 25.3185 10.6473 24.7994 10.4921L23.6107 10.1362Z" fill="#C2D1D9"/>
<path d="M26.4632 8.49617C26.6387 8.83034 26.9797 9.02108 27.3326 9.02108C27.4863 9.02108 27.6427 8.98484 27.7884 8.90854C28.2683 8.65639 28.453 8.0632 28.2008 7.58332L27.6236 6.48468C27.3715 6.00479 26.7783 5.82016 26.2984 6.07231C25.8185 6.32447 25.6339 6.91765 25.886 7.39754L26.4632 8.49617Z" fill="#C2D1D9"/>
<path d="M43.0396 9.1644C43.262 9.1644 43.4852 9.08925 43.669 8.93552L44.6208 8.13939C45.0362 7.79149 45.0915 7.17237 44.7436 6.75695C44.3957 6.34115 43.777 6.28622 43.3612 6.63412L42.4094 7.43024C41.994 7.77814 41.9387 8.39689 42.2866 8.81269C42.4807 9.04462 42.7592 9.1644 43.0396 9.1644Z" fill="#C2D1D9"/>
<path d="M42.6081 12.3152C42.7011 12.3152 42.7961 12.3019 42.89 12.2741L44.0786 11.9181C44.5978 11.7625 44.8927 11.2159 44.7374 10.6963C44.5818 10.1771 44.0355 9.88224 43.5156 10.0375L42.3269 10.3934C41.8077 10.549 41.5129 11.0961 41.6681 11.6153C41.7955 12.0406 42.1858 12.3152 42.6081 12.3152Z" fill="#C2D1D9"/>
<path d="M39.3377 8.81002C39.4834 8.88669 39.6395 8.92293 39.7936 8.92293C40.1464 8.92293 40.4875 8.73181 40.6629 8.39765L41.2401 7.2994C41.4923 6.81951 41.3076 6.22632 40.8277 5.97417C40.3478 5.72202 39.7547 5.90665 39.5025 6.38654L38.9253 7.48479C38.6736 7.96468 38.8582 8.55786 39.3377 8.81002Z" fill="#C2D1D9"/>
<path d="M7.1617 33.0601L7.13462 33.0425C6.6799 32.7469 6.07222 32.8762 5.77696 33.3309C5.48171 33.7852 5.61064 34.3933 6.06536 34.6886L6.09244 34.7061C6.25762 34.8133 6.44301 34.8644 6.62612 34.8644C6.94731 34.8644 7.26203 34.7072 7.45009 34.4177C7.74535 33.9634 7.61641 33.3553 7.1617 33.0601Z" fill="#C2D1D9"/>
<path d="M34.9459 10.4132C34.6507 10.8679 34.7796 11.4756 35.2343 11.7708L35.2614 11.7884C35.4266 11.8959 35.612 11.947 35.7951 11.947C36.1163 11.947 36.431 11.7895 36.619 11.5003C36.9143 11.0456 36.7854 10.438 36.3306 10.1427L36.3036 10.1248C35.8489 9.82951 35.2412 9.95883 34.9459 10.4132Z" fill="#C2D1D9"/>
</g>
<defs>
<clipPath id="clip0">
<rect width="50" height="50" fill="white"/>
</clipPath>
</defs>
</svg>
