<svg width="51" height="51" viewBox="0 0 51 51" fill="none" xmlns="http://www.w3.org/2000/svg">
<g clip-path="url(#clip0)">
<path d="M49.5133 27.9358C48.7129 27.5124 47.7526 27.5035 46.9448 27.9124L43.8017 29.5027C46.1409 26.6202 47.5452 22.9495 47.5452 18.9561C47.5452 9.71191 40.0247 2.19141 30.7809 2.19141C21.5366 2.19141 14.0161 9.71191 14.0161 18.9561C14.0161 21.423 14.5515 23.8284 15.5784 26.0307C15.4247 25.9778 15.2725 25.928 15.1231 25.8852C14.4099 25.6798 13.0659 25.5891 9.64538 27.1603C8.98624 27.463 8.36719 27.7743 7.84657 28.0478V26.1673C7.84657 25.6144 7.39833 25.1662 6.84542 25.1662H1.00115C0.448242 25.1662 0 25.6144 0 26.1673V47.8483C0 48.4012 0.448242 48.8494 1.00115 48.8494H6.84542C7.39833 48.8494 7.84657 48.4012 7.84657 47.8483V46.0853H19.9958C20.5483 46.0853 20.997 45.637 20.997 45.0845C20.997 44.5316 20.5483 44.0834 19.9958 44.0834H7.84657V30.3205C10.4372 28.8529 13.6006 27.5303 14.5698 27.8093C15.197 27.9895 15.9476 28.3214 16.7422 28.6723C18.4476 29.426 20.5701 30.3641 22.944 30.4649C26.1669 30.6023 29.1785 31.6688 29.6034 32.1999C29.8505 32.6446 29.9272 33.4987 29.861 33.9602H18.1165C16.618 33.9602 15.7986 34.5897 15.3749 35.1177C14.3247 36.4271 14.6932 38.2609 14.7387 38.4656C14.8585 39.0052 15.3939 39.3488 15.9336 39.2282C16.4737 39.1083 16.8145 38.5765 16.6947 38.0368C16.6352 37.7551 16.5531 36.843 16.9398 36.3664C17.0211 36.2664 17.2678 35.9621 18.1165 35.9621H30.356C30.3575 35.9621 30.3591 35.9625 30.3606 35.9625C30.3618 35.9625 30.363 35.9621 30.3641 35.9621H31.3929C34.0606 35.9621 36.729 35.3255 39.1091 34.1209L47.8487 29.6984C48.0779 29.5824 48.3498 29.5851 48.5767 29.705C48.8366 29.8427 48.9981 30.1108 48.9981 30.405V31.8022C48.9981 32.0552 48.8755 32.2948 48.6709 32.4435L37.8531 40.2815C36.4959 41.2647 34.9034 41.9211 33.2458 42.1803L27.7751 43.0449C27.2292 43.1309 26.856 43.6437 26.9424 44.19C27.0206 44.683 27.4459 45.0347 27.9299 45.0347C27.9821 45.0347 28.0346 45.0308 28.0875 45.0223L33.5567 44.1581C35.5236 43.8507 37.4158 43.0709 39.0278 41.9029L49.8455 34.0652C50.5685 33.5411 51 32.6952 51 31.8026V30.4054C51 29.3676 50.4304 28.4214 49.5133 27.9358ZM5.84427 46.8471H2.0023V27.1681H5.84427V46.8471ZM28.0315 29.3062C26.4798 28.8408 24.6564 28.5338 23.0292 28.4649C21.439 28.3972 19.9421 27.8642 18.5736 27.286C18.5519 27.2385 18.5273 27.1922 18.4978 27.1474C16.8756 24.7206 16.0184 21.888 16.0184 18.9561C16.0184 10.8162 22.6405 4.19371 30.7809 4.19371C38.9208 4.19371 45.5433 10.8158 45.5433 18.9561C45.5433 26.7229 39.5142 33.1077 31.8906 33.6769V26.877C31.8921 26.8284 31.8937 26.7385 31.8906 26.6136V24.0934C34.6952 24.0813 37.0228 23.2635 38.82 21.6541C42.1204 18.6985 42.3651 14.171 42.3741 13.9796C42.3877 13.6858 42.2713 13.4014 42.0562 13.201C41.8414 13.0006 41.5484 12.9049 41.2573 12.9395C35.2041 13.6515 32.4326 16.3406 31.1735 18.4713C30.3727 19.8265 30.0688 21.1289 29.9556 22.0094C29.291 21.3043 28.4809 20.7273 27.5634 20.3312L23.3654 18.5203C23.3035 18.4935 23.2393 18.4733 23.1732 18.4596C23.0331 18.4301 22.9674 18.4137 22.9222 18.4028C22.7604 18.362 22.6977 18.3534 22.337 18.311C22.0444 18.2764 21.753 18.3725 21.5378 18.5725C21.323 18.7729 21.2067 19.0577 21.2203 19.3511C21.2277 19.5122 21.4339 23.3277 24.2175 25.8202C25.6988 27.1471 27.6035 27.8361 29.8883 27.8793V30.0174C29.384 29.7641 28.7653 29.5264 28.0315 29.3062ZM31.9653 22.0915C32.0684 21.4277 32.3143 20.4763 32.8972 19.49C34.2345 17.2266 36.6866 15.7601 40.1951 15.1204C39.9169 16.4581 39.2181 18.6098 37.4846 20.1627C36.0827 21.418 34.2298 22.0646 31.9653 22.0915ZM29.7964 25.8755C28.0677 25.8183 26.6478 25.3035 25.5654 24.3397C24.3654 23.2708 23.7751 21.8281 23.4876 20.753L26.7704 22.1693C28.3361 22.8448 29.47 24.2448 29.7964 25.8755Z" fill="#C2D1D9"/>
<path d="M24.5093 43.9485L24.4816 43.9306C24.0174 43.6298 23.3976 43.7625 23.0972 44.2263C22.7964 44.6905 22.9287 45.3104 23.3929 45.6107L23.4206 45.629C23.589 45.738 23.7774 45.7897 23.9641 45.7897C24.2921 45.7897 24.6135 45.629 24.805 45.3329C25.1058 44.8691 24.9735 44.2493 24.5093 43.9485Z" fill="#C2D1D9"/>
<path d="M21.5441 14.243C21.562 14.1877 23.3989 8.73645 29.1564 8.20222C29.7066 8.15125 30.1117 7.6637 30.0607 7.11313C30.0093 6.56255 29.5245 6.15828 28.9712 6.20886C26.0479 6.48007 23.5063 7.84697 21.6215 10.1629C20.2118 11.8948 19.6628 13.5543 19.6402 13.6239C19.469 14.1496 19.757 14.7146 20.2826 14.8854C20.3854 14.9188 20.4896 14.9348 20.5924 14.9348C21.0145 14.9348 21.4067 14.6659 21.5441 14.243Z" fill="#C2D1D9"/>
<path d="M32.3831 8.28995L32.4107 8.30785C32.5792 8.41718 32.7675 8.46894 32.9543 8.46894C33.2823 8.46894 33.6037 8.30785 33.7951 8.01213C34.0959 7.54833 33.9636 6.92849 33.4994 6.62772L33.4718 6.60982C33.0076 6.30905 32.3877 6.44173 32.0874 6.90554C31.7866 7.36973 31.9193 7.98957 32.3831 8.28995Z" fill="#C2D1D9"/>
</g>
<defs>
<clipPath id="clip0">
<rect width="51" height="51" fill="white"/>
</clipPath>
</defs>
</svg>
